<?xml version="1.0" encoding="UTF-8" standalone="no"?>
<!-- Created with Inkscape (http://www.inkscape.org/) -->

<svg
   width="1024"
   height="276.505"
   viewBox="0 0 270.93333 73.158615"
   version="1.1"
   id="svg1"
   xml:space="preserve"
   inkscape:version="1.4.4 (dcaf3e7d9e, 2026-05-05)"
   sodipodi:docname="v3rhelp-logo-horizontal.svg"
   inkscape:export-filename="v3rhelp-logo-horizontal.png"
   inkscape:export-xdpi="96"
   inkscape:export-ydpi="96"
   xmlns:inkscape="http://www.inkscape.org/namespaces/inkscape"
   xmlns:sodipodi="http://sodipodi.sourceforge.net/DTD/sodipodi-0.dtd"
   xmlns="http://www.w3.org/2000/svg"
   xmlns:svg="http://www.w3.org/2000/svg"><sodipodi:namedview
     id="namedview1"
     pagecolor="#ffffff"
     bordercolor="#000000"
     borderopacity="0.25"
     inkscape:showpageshadow="2"
     inkscape:pageopacity="0.0"
     inkscape:pagecheckerboard="0"
     inkscape:deskcolor="#d1d1d1"
     inkscape:document-units="px"
     showguides="false"
     inkscape:zoom="0.35767747"
     inkscape:cx="-55.916298"
     inkscape:cy="202.69658"
     inkscape:window-width="2560"
     inkscape:window-height="1012"
     inkscape:window-x="0"
     inkscape:window-y="0"
     inkscape:window-maximized="1"
     inkscape:current-layer="layer1" /><defs
     id="defs1"><clipPath
       clipPathUnits="userSpaceOnUse"
       id="clipPath5238-1-8-9-8-4"><rect
         transform="rotate(-90)"
         style="color:#000000;display:inline;overflow:visible;visibility:visible;fill:#ffffff;fill-opacity:1;fill-rule:evenodd;stroke:none;enable-background:accumulate"
         id="rect5240-2-3-9-5-1"
         width="315.35437"
         height="744.09448"
         x="-1016.9291"
         y="1461.6753" /></clipPath><clipPath
       clipPathUnits="userSpaceOnUse"
       id="clipPath5242-3-9-7-7"><rect
         transform="rotate(-90)"
         style="color:#000000;display:inline;overflow:visible;visibility:visible;fill:#ffffff;fill-opacity:1;fill-rule:evenodd;stroke:none;enable-background:accumulate"
         id="rect5244-3-2-6-6"
         width="315.35437"
         height="744.09448"
         x="-1016.9291"
         y="1461.6753" /></clipPath></defs><g
     inkscape:label="Camada 1"
     inkscape:groupmode="layer"
     id="layer1"><g
       id="g48"
       transform="matrix(0.96728965,0,0,0.96728965,28.316494,-102.90676)"><g
         id="g47"
         transform="translate(103.09931)"><path
           style="fill:#da8c1c;fill-opacity:1;fill-rule:nonzero;stroke:none;stroke-width:0.105416;stroke-opacity:1"
           d="m -103.3918,147.69956 c -0.46384,-0.0473 -0.98564,-0.14237 -1.15959,-0.21122 -0.17394,-0.0688 -1.94904,-0.59627 -3.94469,-1.17207 -1.99565,-0.57579 -3.64252,-1.06097 -3.65972,-1.07815 -0.0499,-0.0499 0.47562,-8.87271 0.59774,-10.03519 0.47327,-4.50488 1.26235,-6.71242 3.10249,-8.67961 1.58432,-1.69368 3.1145,-2.45692 5.74896,-2.86753 1.15015,-0.17926 8.232316,-0.25695 9.939029,-0.10902 2.713278,0.23516 4.446746,0.64784 6.07836,1.44705 0.823518,0.40338 1.153345,0.64457 1.9081,1.39529 1.966004,1.9555 2.873074,4.6664 3.309014,9.88941 0.243275,2.91478 0.519358,8.89056 0.415401,8.9912 -0.191515,0.18542 -3.701877,1.16819 -4.876662,1.36528 -4.266215,0.71571 -14.663642,1.34974 -17.458432,1.06456 z"
           id="path36"
           inkscape:connector-curvature="0" /><path
           id="path47"
           style="fill:#ffffff;stroke-width:0.439562"
           d="m -96.622142,145.62012 -25.827868,-23.12907 v 12.33578 l 25.823104,25.02311 z"
           sodipodi:nodetypes="ccccc" /><path
           id="path46"
           style="fill:#ffffff;fill-opacity:1;stroke-width:0.439562"
           d="m -96.624524,145.62012 25.827869,-23.12907 v 12.33578 l -25.823105,25.02311 z"
           sodipodi:nodetypes="ccccc" /><ellipse
           style="fill:#da8c1c;fill-opacity:1;fill-rule:nonzero;stroke:none;stroke-width:0.208713;stroke-opacity:1"
           id="ellipse36"
           cx="-97.018013"
           cy="114.38617"
           rx="8.485981"
           ry="7.9994626" /><path
           id="path37"
           style="fill:#e6a61c;stroke-width:0.439562"
           d="m -96.622142,147.20763 -25.827868,-23.12907 v 12.33578 l 25.823104,25.02311 z"
           sodipodi:nodetypes="ccccc" /><path
           id="path39"
           style="fill:#1e2d2b;fill-opacity:1;stroke-width:0.439562"
           d="M -96.622142,161.43745 -132.3733,126.80023 v 20.4074 l 35.751163,34.81166 z"
           sodipodi:nodetypes="ccccc" /><path
           id="path41"
           style="fill:#da8c1c;fill-opacity:1;stroke-width:0.439562"
           d="m -96.624524,147.20763 25.827869,-23.12907 v 12.33578 l -25.823105,25.02311 z"
           sodipodi:nodetypes="ccccc" /><path
           id="path42"
           style="fill:#24393a;stroke-width:0.439562"
           d="m -96.622133,161.43745 35.751154,-34.63722 v 20.4074 l -35.751158,34.81166 z"
           sodipodi:nodetypes="ccccc" /><ellipse
           style="fill:#1e2d2b;fill-opacity:1;fill-rule:nonzero;stroke:#ffffff;stroke-width:1.56931;stroke-miterlimit:4;stroke-dasharray:none;stroke-opacity:1"
           id="ellipse42"
           cx="-78.657242"
           cy="130.10269"
           rx="11.031964"
           ry="10.584723" /><g
           id="g45"
           transform="matrix(0.10435642,0,0,0.10435642,-82.942833,28.292901)"
           style="fill:#da8c1c;fill-opacity:1"><g
             id="g44"
             transform="rotate(41.392642,221.93295,477.51118)"
             style="fill:#da8c1c;fill-opacity:1"><path
               id="path43"
               style="fill:#da8c1c;fill-opacity:1"
               inkscape:connector-curvature="0"
               d="m 365.10854,929.81751 c -1.4336,0.11093 -3.2466,0.73862 -5.5938,2.0938 -15.022,8.6728 6.6103,12.666 -2.0625,27.688 -8.673,15.02 -22.938,-1.72 -22.938,15.62 0,17.346 14.265,0.60321 22.938,15.625 8.6728,15.02199 -12.959,19.01499 2.0625,27.68799 15.022,8.6728 7.6543,-12.062 25,-12.062 17.3457,0 9.9782,20.735 25,12.062 15.022,-8.6728 -6.6103,-12.666 2.0625,-27.68799 8.6728,-15.022 22.938,1.7207 22.938,-15.625 0,-17.3457 -14.265,-0.60321 -22.938,-15.625 -8.6728,-15.022 12.959,-19.015 -2.0625,-27.688 -15.022,-8.6728 -7.6543,12.062 -25,12.062 -14.635,0 -11.665,-14.755 -19.406,-14.156 z m 19.406,25.4 c 11.046,0 20,8.9543 20,20 0,11.0457 -8.9543,20 -20,20 -11.0457,0 -20,-8.9543 -20,-20 0,-11.0457 8.9543,-20 20,-20 z" /><path
               id="path44"
               d="m 430.35454,953.00751 c -0.88956,0.60965 -1.8317,1.6972 -2.8481,3.4576 -6.5046,11.266 9.0432,5.7478 9.0432,18.757 -1e-5,13.009 -15.544,7.484 -9.039,18.75 6.5046,11.26599 9.4914,-4.9574 20.758,1.5472 11.266,6.50459 -1.2868,17.20999 11.722,17.20999 13.0088,0 0.4482,-10.705 11.715,-17.20999 11.266,-6.5046 14.257,9.72619 20.761,-1.5402 6.5046,-11.266 -9.0432,-5.7478 -9.0432,-18.757 10e-6,-13.009 15.544,-7.484 9.039,-18.75 -6.5046,-11.266 -9.4914,4.9574 -20.758,-1.5472 -11.266,-6.5046 1.2868,-17.21 -11.722,-17.21 -13.0088,0 -0.4482,10.705 -11.715,17.21 -9.506,5.4883 -13.11,-5.2096 -17.913,-1.9174 z m 22.132,9.2245 c 7.1744,-4.1421 16.348,-1.684 20.49,5.4904 4.1421,7.1744 1.684,16.348 -5.4904,20.49 -7.1744,4.1421 -16.348,1.684 -20.49,-5.4904 -4.1421,-7.1744 -1.684,-16.348 5.4904,-20.49 z"
               style="fill:#da8c1c;fill-opacity:1"
               inkscape:connector-curvature="0" /></g></g></g><path
         style="font-weight:bold;font-size:12.7514px;font-family:'Exo 2';-inkscape-font-specification:'Exo 2 Bold';letter-spacing:0.66414px;fill:#666666;stroke-width:0.0502029"
         d="m 40.004332,167.82708 q 0.242276,0 0.420796,0.14027 0.191271,0.14026 0.255028,0.36979 l 2.55028,8.28841 h -1.989219 l -1.797947,-6.46496 q -0.05101,-0.21677 -0.102011,-0.43355 -0.05101,-0.22952 -0.08926,-0.43355 h -0.344288 q -0.03825,0.20403 -0.08926,0.43355 -0.03825,0.21678 -0.102011,0.43355 l -1.797947,6.46496 h -2.00197 l 2.563031,-8.28841 q 0.06376,-0.22953 0.242277,-0.36979 0.191271,-0.14027 0.433548,-0.14027 z m 1.351648,5.0113 v 1.46641 h -4.565001 v -1.46641 z m 5.267394,-2.51202 v 6.00591 q 0,0.57381 -0.204022,1.10937 -0.191271,0.54831 -0.561062,0.98186 -0.357039,0.43354 -0.867095,0.70132 l -1.045615,-0.81609 q 0.433548,-0.48455 0.612067,-0.9436 0.17852,-0.45905 0.17852,-1.03286 v -6.00591 z m -0.54831,-2.84356 q 0.54831,0 0.54831,0.56106 v 0.68857 q 0,0.57382 -0.54831,0.57382 h -0.828841 q -0.54831,0 -0.54831,-0.57382 v -0.68857 q 0,-0.56106 0.54831,-0.56106 z m 4.642582,2.84356 v 4.1442 q 0,0.3953 0.165768,0.56106 0.17852,0.16577 0.561062,0.16577 0.395293,0 0.777835,-0.14026 0.395294,-0.15302 0.969107,-0.4718 l 0.153016,1.03286 q -0.688575,0.59931 -1.351648,0.8926 -0.663073,0.29328 -1.3644,0.29328 -1.797947,0 -1.797947,-1.75969 v -4.71802 z m 4.169708,0 v 6.29919 H 53.39544 l -0.216774,-1.23689 -0.178519,-0.17852 v -4.88378 z m 4.362051,-0.16577 q 0.663073,0 1.27514,0.19127 0.624818,0.19127 1.09662,0.62482 l -0.127514,0.86709 q -0.433547,-0.12751 -0.777835,-0.22952 -0.344288,-0.10201 -0.803338,-0.10201 -0.395294,0 -0.63757,0.14026 -0.242277,0.14027 -0.35704,0.54831 -0.114762,0.40805 -0.114762,1.21139 0,0.75233 0.102011,1.14762 0.114763,0.38254 0.344288,0.53556 0.242276,0.14027 0.612067,0.14027 0.331536,0 0.573813,-0.0638 0.242277,-0.0765 0.484553,-0.21677 0.242277,-0.15302 0.54831,-0.36979 l 0.140266,0.93085 q -0.382542,0.53556 -0.994609,0.90535 -0.612068,0.35704 -1.504666,0.35704 -1.211383,0 -1.73419,-0.8671 -0.510056,-0.86709 -0.510056,-2.48652 0,-1.26239 0.255028,-1.96372 0.267779,-0.71408 0.803338,-1.00736 0.535559,-0.29328 1.326146,-0.29328 z m 3.91468,-2.46102 v 8.92598 h -1.491914 l -0.191271,-1.16038 -0.204023,-0.14026 v -4.13146 l 0.07651,-0.16577 q -0.03825,-0.39529 -0.06376,-0.79058 -0.01275,-0.40805 -0.01275,-0.82884 v -1.70869 z m 5.535176,2.46102 q 0.790587,0 1.338897,0.21677 0.548311,0.20403 0.828841,0.71408 0.293283,0.49731 0.293283,1.37715 v 4.15696 h -1.504666 l -0.267779,-1.3644 -0.127514,-0.19127 v -2.61404 q 0,-0.4463 -0.216774,-0.65032 -0.204022,-0.20402 -0.790587,-0.20402 -0.484553,0 -1.211383,0.0383 -0.726829,0.0255 -1.491913,0.0765 l -0.17852,-1.24964 q 0.45905,-0.0893 1.058366,-0.15301 0.599316,-0.0638 1.198632,-0.10201 0.599316,-0.051 1.071117,-0.051 z m 1.683185,2.58853 -0.01275,1.05837 -2.805308,0.0128 q -0.344288,0 -0.497305,0.16577 -0.140265,0.16577 -0.140265,0.4463 v 0.30603 q 0,0.31879 0.178519,0.49731 0.17852,0.16576 0.573813,0.16576 0.331537,0 0.714079,-0.14026 0.395293,-0.14027 0.777835,-0.39529 0.382542,-0.25503 0.675824,-0.59932 v 0.81609 q -0.114762,0.19127 -0.344287,0.48455 -0.216774,0.28053 -0.561062,0.56106 -0.344288,0.26778 -0.803338,0.45906 -0.459051,0.19127 -1.045615,0.19127 -0.573813,0 -1.032863,-0.20403 -0.459051,-0.20402 -0.72683,-0.59931 -0.26778,-0.3953 -0.26778,-0.98186 v -0.65032 q 0,-0.75233 0.510056,-1.17313 0.510056,-0.4208 1.402654,-0.4208 z m 7.818732,-2.42276 0.229526,1.24963 0.178519,0.16577 v 4.88379 h -1.887207 v -6.29919 z m 3.073088,-0.16577 -0.17852,1.74694 h -0.522807 q -0.446299,0 -0.930852,0.12752 -0.484554,0.12751 -1.224135,0.38254 l -0.127514,-1.05837 q 0.663073,-0.58656 1.338897,-0.8926 0.675824,-0.30603 1.313394,-0.30603 z m 4.846598,0 q 0.790586,0 1.338897,0.21677 0.54831,0.20403 0.828841,0.71408 0.293282,0.49731 0.293282,1.37715 v 4.15696 h -1.504665 l -0.26778,-1.3644 -0.127514,-0.19127 v -2.61404 q 0,-0.4463 -0.216774,-0.65032 -0.204022,-0.20402 -0.790586,-0.20402 -0.484554,0 -1.211383,0.0383 -0.72683,0.0255 -1.491914,0.0765 l -0.17852,-1.24964 q 0.459051,-0.0893 1.058366,-0.15301 0.599316,-0.0638 1.198632,-0.10201 0.599316,-0.051 1.071118,-0.051 z m 1.683184,2.58853 -0.01275,1.05837 -2.805308,0.0128 q -0.344288,0 -0.497305,0.16577 -0.140265,0.16577 -0.140265,0.4463 v 0.30603 q 0,0.31879 0.17852,0.49731 0.178519,0.16576 0.573813,0.16576 0.331536,0 0.714078,-0.14026 0.395293,-0.14027 0.777835,-0.39529 0.382542,-0.25503 0.675825,-0.59932 v 0.81609 q -0.114763,0.19127 -0.344288,0.48455 -0.216774,0.28053 -0.561062,0.56106 -0.344288,0.26778 -0.803338,0.45906 -0.45905,0.19127 -1.045615,0.19127 -0.573813,0 -1.032863,-0.20403 -0.459051,-0.20402 -0.72683,-0.59931 -0.267779,-0.3953 -0.267779,-0.98186 v -0.65032 q 0,-0.75233 0.510056,-1.17313 0.510056,-0.4208 1.402654,-0.4208 z m -0.612067,-5.86564 0.81609,1.27514 -2.843562,1.41541 -0.561062,-0.80334 z m 7.677406,3.28986 q 1.18588,0 1.695936,0.8671 0.510056,0.86709 0.510056,2.48652 0,1.26239 -0.267779,1.97647 -0.255028,0.71407 -0.790587,1.00736 -0.522807,0.28053 -1.313394,0.28053 -0.675824,0 -1.287891,-0.19127 -0.612068,-0.19127 -1.083869,-0.63757 l 0.127514,-0.8416 q 0.420796,0.12752 0.765084,0.22953 0.357039,0.0893 0.803338,0.0893 0.408045,0 0.650321,-0.14027 0.242277,-0.14026 0.344288,-0.54831 0.114763,-0.42079 0.114763,-1.21138 0,-0.77783 -0.102012,-1.18588 -0.102011,-0.4208 -0.331536,-0.57381 -0.229525,-0.16577 -0.599316,-0.16577 -0.408045,0 -0.752332,0.16577 -0.344288,0.15301 -0.777836,0.4463 l -0.242276,-0.8671 q 0.255028,-0.34429 0.650321,-0.61207 0.408045,-0.26778 0.892598,-0.42079 0.484553,-0.15302 0.994609,-0.15302 z m -2.614037,0.15302 0.17852,1.14762 0.178519,0.19127 v 4.0932 l -0.06376,0.15302 q 0.03826,0.38254 0.05101,0.79059 0.0255,0.42079 0.01275,0.82884 v 1.51742 h -1.887207 v -8.72196 z m 8.71028,0 v 6.29919 h -1.874455 v -6.29919 z m -0.52281,-2.77981 q 0.56107,0 0.56107,0.57382 v 0.67582 q 0,0.57381 -0.56107,0.57381 h -0.816086 q -0.561062,0 -0.561062,-0.57381 v -0.67582 q 0,-0.57382 0.561062,-0.57382 z m 4.93585,2.61404 q 0.66307,0 1.27514,0.19127 0.62482,0.19127 1.09662,0.62482 l -0.12751,0.86709 q -0.43355,-0.12751 -0.77784,-0.22952 -0.34429,-0.10201 -0.80334,-0.10201 -0.39529,0 -0.63757,0.14026 -0.24227,0.14027 -0.35704,0.54831 -0.11476,0.40805 -0.11476,1.21139 0,0.75233 0.10201,1.14762 0.11476,0.38254 0.34429,0.53556 0.24228,0.14027 0.61207,0.14027 0.33153,0 0.57381,-0.0638 0.24228,-0.0765 0.48455,-0.21677 0.24228,-0.15302 0.54831,-0.36979 l 0.14027,0.93085 q -0.38254,0.53556 -0.99461,0.90535 -0.61207,0.35704 -1.50467,0.35704 -1.21138,0 -1.73419,-0.8671 -0.51005,-0.86709 -0.51005,-2.48652 0,-1.26239 0.25503,-1.96372 0.26778,-0.71408 0.80333,-1.00736 0.53556,-0.29328 1.32615,-0.29328 z m 3.91468,-2.46102 v 8.92598 h -1.49191 l -0.19128,-1.16038 -0.20402,-0.14026 v -4.13146 l 0.0765,-0.16577 q -0.0383,-0.39529 -0.0638,-0.79058 -0.0128,-0.40805 -0.0128,-0.82884 v -1.70869 z m 5.53517,2.46102 q 0.79059,0 1.3389,0.21677 0.54831,0.20403 0.82884,0.71408 0.29328,0.49731 0.29328,1.37715 v 4.15696 h -1.50466 l -0.26778,-1.3644 -0.12751,-0.19127 v -2.61404 q 0,-0.4463 -0.21678,-0.65032 -0.20402,-0.20402 -0.79058,-0.20402 -0.48456,0 -1.21139,0.0383 -0.72683,0.0255 -1.49191,0.0765 l -0.17852,-1.24964 q 0.45905,-0.0893 1.05837,-0.15301 0.59931,-0.0638 1.19863,-0.10201 0.59931,-0.051 1.07111,-0.051 z m 1.68319,2.58853 -0.0127,1.05837 -2.80531,0.0128 q -0.34429,0 -0.4973,0.16577 -0.14027,0.16577 -0.14027,0.4463 v 0.30603 q 0,0.31879 0.17852,0.49731 0.17852,0.16576 0.57381,0.16576 0.33154,0 0.71408,-0.14026 0.39529,-0.14027 0.77784,-0.39529 0.38254,-0.25503 0.67582,-0.59932 v 0.81609 q -0.11476,0.19127 -0.34429,0.48455 -0.21677,0.28053 -0.56106,0.56106 -0.34429,0.26778 -0.80334,0.45906 -0.45905,0.19127 -1.04561,0.19127 -0.57382,0 -1.03287,-0.20403 -0.45905,-0.20402 -0.72683,-0.59931 -0.26777,-0.3953 -0.26777,-0.98186 v -0.65032 q 0,-0.75233 0.51005,-1.17313 0.51006,-0.4208 1.40266,-0.4208 z m 3.90299,1.93822 q 0.36979,0 0.51006,0.15301 0.14026,0.14027 0.15301,0.51006 v 0.81609 q 0,0.4973 -0.0893,0.90535 -0.0765,0.40804 -0.21677,0.75233 -0.14027,0.34429 -0.34429,0.67583 l -0.76508,-0.22953 q 0.10201,-0.4208 0.14026,-0.81609 0.0383,-0.38254 0.051,-0.82884 -0.53556,0 -0.54831,-0.58657 l 0.0255,-0.68857 q 0.0127,-0.36979 0.15302,-0.51006 0.15302,-0.15301 0.51005,-0.15301 z m 8.63482,-7.25555 q 0.22952,0 0.59931,0.0127 0.38255,0.0128 0.76509,0.051 0.39529,0.0255 0.67582,0.0765 l -0.16577,1.21138 h -1.19863 q -0.48455,0 -0.67582,0.19127 -0.19127,0.19127 -0.19127,0.66307 v 6.98777 h -1.88721 v -7.23004 q 0,-0.59932 0.19127,-1.03287 0.20402,-0.43355 0.66307,-0.67582 0.45905,-0.25503 1.22414,-0.25503 z m 1.56842,2.89457 v 1.23688 h -4.74352 v -1.17313 l 1.13487,-0.0637 z m 4.90397,-0.16577 q 0.79058,0 1.33889,0.21677 0.54831,0.20403 0.82884,0.71408 0.29329,0.49731 0.29329,1.37715 v 4.15696 h -1.50467 l -0.26778,-1.3644 -0.12751,-0.19127 v -2.61404 q 0,-0.4463 -0.21678,-0.65032 -0.20402,-0.20402 -0.79058,-0.20402 -0.48456,0 -1.21139,0.0383 -0.72683,0.0255 -1.49191,0.0765 l -0.17852,-1.24964 q 0.45905,-0.0893 1.05837,-0.15301 0.59931,-0.0638 1.19863,-0.10201 0.59931,-0.051 1.07112,-0.051 z m 1.68318,2.58853 -0.0128,1.05837 -2.80531,0.0128 q -0.34429,0 -0.4973,0.16577 -0.14027,0.16577 -0.14027,0.4463 v 0.30603 q 0,0.31879 0.17852,0.49731 0.17852,0.16576 0.57381,0.16576 0.33154,0 0.71408,-0.14026 0.3953,-0.14027 0.77784,-0.39529 0.38254,-0.25503 0.67582,-0.59932 v 0.81609 q -0.11476,0.19127 -0.34429,0.48455 -0.21677,0.28053 -0.56106,0.56106 -0.34428,0.26778 -0.80334,0.45906 -0.45905,0.19127 -1.04561,0.19127 -0.57381,0 -1.03286,-0.20403 -0.45905,-0.20402 -0.72683,-0.59931 -0.26778,-0.3953 -0.26778,-0.98186 v -0.65032 q 0,-0.75233 0.51005,-1.17313 0.51006,-0.4208 1.40266,-0.4208 z m -0.61207,-5.86564 0.81609,1.27514 -2.84356,1.41541 -0.56106,-0.80334 z m 6.46603,3.27711 q 0.34429,0 0.75233,0.0382 0.40804,0.0255 0.81609,0.11477 0.4208,0.0765 0.76508,0.22952 l -0.20402,1.18588 q -0.51005,-0.0127 -0.98186,-0.0255 -0.45905,-0.0127 -0.82884,-0.0127 -0.57381,0 -0.90535,0.15301 -0.33153,0.15302 -0.48455,0.54831 -0.14027,0.38255 -0.14027,1.07112 0,0.70133 0.14027,1.09662 0.15302,0.3953 0.48455,0.54831 0.33154,0.15302 0.90535,0.15302 0.20402,0 0.52281,-0.0127 0.31878,-0.0128 0.68858,-0.0255 0.36979,-0.0255 0.72683,-0.0765 l 0.17851,1.19863 q -0.51005,0.22952 -1.16037,0.33153 -0.65032,0.10202 -1.28789,0.10202 -1.17313,0 -1.87446,-0.31879 -0.68858,-0.33154 -0.99461,-1.05837 -0.30603,-0.72682 -0.30603,-1.93821 0,-1.21138 0.30603,-1.93821 0.31879,-0.72683 1.02011,-1.04562 0.70133,-0.31878 1.86171,-0.31878 z m 6.14725,0.16577 v 6.29919 h -1.87446 v -6.29919 z m -0.52281,-2.77981 q 0.56106,0 0.56106,0.57382 v 0.67582 q 0,0.57381 -0.56106,0.57381 h -0.81609 q -0.56106,0 -0.56106,-0.57381 v -0.67582 q 0,-0.57382 0.56106,-0.57382 z m 4.66807,0.15302 v 6.91126 q 0,0.31878 0.19127,0.48455 0.19127,0.15302 0.56106,0.15302 h 0.51006 l 0.21677,1.27514 q -0.15301,0.0765 -0.43355,0.12751 -0.28053,0.0638 -0.57381,0.0893 -0.29328,0.0383 -0.4973,0.0383 -0.85435,0 -1.35165,-0.4463 -0.49731,-0.4463 -0.49731,-1.24964 v -7.38306 z m 9.08112,2.46102 q 1.59393,0 2.28251,0.54831 0.70132,0.53556 0.70132,1.60668 0.0128,0.86709 -0.43355,1.30064 -0.44629,0.4208 -1.54291,0.4208 h -3.51939 v -1.05837 h 2.99658 q 0.43355,0 0.54831,-0.17852 0.12751,-0.19127 0.12751,-0.52281 -0.0128,-0.4463 -0.26778,-0.61207 -0.24227,-0.17851 -0.82884,-0.17851 -0.52281,0 -0.81609,0.14026 -0.29328,0.14027 -0.40804,0.53556 -0.11477,0.39529 -0.11477,1.14763 0,0.79058 0.14027,1.22413 0.14027,0.4208 0.4718,0.58656 0.34429,0.16577 0.94361,0.16577 0.43354,0 1.07111,-0.0255 0.65032,-0.0382 1.30065,-0.11476 l 0.17852,1.16037 q -0.3698,0.17852 -0.8416,0.28054 -0.4718,0.10201 -0.9691,0.14026 -0.49731,0.051 -0.95636,0.051 -1.19863,0 -1.93821,-0.34429 -0.72683,-0.35704 -1.05837,-1.08387 -0.31878,-0.72683 -0.31878,-1.86171 0,-1.23688 0.33153,-1.96371 0.33154,-0.72683 1.04562,-1.04562 0.71408,-0.31878 1.87445,-0.31878 z m 9.7697,0.16577 0.22953,1.24963 0.17851,0.16577 v 4.88379 h -1.8872 v -6.29919 z m 3.07309,-0.16577 -0.17852,1.74694 h -0.52281 q -0.4463,0 -0.93085,0.12752 -0.48455,0.12751 -1.22414,0.38254 l -0.12751,-1.05837 q 0.66307,-0.58656 1.3389,-0.8926 0.67582,-0.30603 1.31339,-0.30603 z m 4.84659,0 q 0.79058,0 1.33889,0.21677 0.54831,0.20403 0.82885,0.71408 0.29328,0.49731 0.29328,1.37715 v 4.15696 h -1.50467 l -0.26778,-1.3644 -0.12751,-0.19127 v -2.61404 q 0,-0.4463 -0.21677,-0.65032 -0.20403,-0.20402 -0.79059,-0.20402 -0.48455,0 -1.21138,0.0383 -0.72683,0.0255 -1.49192,0.0765 l -0.17852,-1.24964 q 0.45905,-0.0893 1.05837,-0.15301 0.59931,-0.0638 1.19863,-0.10201 0.59932,-0.051 1.07112,-0.051 z m 1.68318,2.58853 -0.0128,1.05837 -2.80531,0.0128 q -0.34428,0 -0.4973,0.16577 -0.14027,0.16577 -0.14027,0.4463 v 0.30603 q 0,0.31879 0.17852,0.49731 0.17852,0.16576 0.57382,0.16576 0.33153,0 0.71407,-0.14026 0.3953,-0.14027 0.77784,-0.39529 0.38254,-0.25503 0.67582,-0.59932 v 0.81609 q -0.11476,0.19127 -0.34428,0.48455 -0.21678,0.28053 -0.56107,0.56106 -0.34428,0.26778 -0.80333,0.45906 -0.45905,0.19127 -1.04562,0.19127 -0.57381,0 -1.03286,-0.20403 -0.45905,-0.20402 -0.72683,-0.59931 -0.26778,-0.3953 -0.26778,-0.98186 v -0.65032 q 0,-0.75233 0.51005,-1.17313 0.51006,-0.4208 1.40266,-0.4208 z m 5.3184,-2.58853 q 0.45905,0 0.99461,0.0382 0.53556,0.0255 1.04561,0.0765 0.51006,0.051 0.90535,0.12752 l -0.12751,1.17312 q -0.61207,-0.0127 -1.23689,-0.0127 -0.61206,-0.0128 -1.19863,-0.0128 -0.4973,-0.0127 -0.76508,0.0128 -0.26778,0.0255 -0.38254,0.12752 -0.10202,0.0893 -0.10202,0.33153 0,0.28053 0.19128,0.38255 0.19127,0.0893 0.63757,0.20402 l 1.64493,0.39529 q 0.79058,0.20402 1.17312,0.61207 0.38255,0.39529 0.38255,1.19863 0,0.79059 -0.29329,1.21138 -0.29328,0.4208 -0.93085,0.58657 -0.63757,0.15301 -1.64493,0.15301 -0.39529,0 -1.17313,-0.0382 -0.77783,-0.0383 -1.70868,-0.19127 l 0.12751,-1.17313 q 0.22952,0.0128 0.58656,0.0255 0.35704,0 0.77784,0 0.4208,0 0.84159,0 0.65032,0 0.99461,-0.0255 0.34429,-0.0383 0.4718,-0.15302 0.12752,-0.11476 0.12752,-0.34428 0,-0.28053 -0.21678,-0.38255 -0.21677,-0.10201 -0.68857,-0.21677 l -1.59393,-0.39529 q -0.59931,-0.16577 -0.93085,-0.4208 -0.33154,-0.25503 -0.4718,-0.62482 -0.12752,-0.36979 -0.12752,-0.87984 0,-0.65033 0.25503,-1.03287 0.26778,-0.39529 0.85435,-0.57381 0.59931,-0.17852 1.58117,-0.17852 z m 7.49889,-1.58117 v 6.03141 q 0,0.34429 0.15302,0.4973 0.16577,0.14027 0.53556,0.14027 h 0.81609 l 0.20402,1.27514 q -0.22953,0.0765 -0.56106,0.12751 -0.33154,0.0638 -0.66308,0.0893 -0.33153,0.0383 -0.56106,0.0383 -0.85434,0 -1.33889,-0.45905 -0.47181,-0.45905 -0.47181,-1.2879 v -6.4522 z m 1.75969,1.74694 v 1.23688 h -4.75627 v -1.17313 l 1.22414,-0.0637 z m 3.15067,0 0.22952,1.24963 0.17852,0.16577 v 4.88379 h -1.88721 v -6.29919 z m 3.07308,-0.16577 -0.17852,1.74694 h -0.5228 q -0.4463,0 -0.93086,0.12752 -0.48455,0.12751 -1.22413,0.38254 l -0.12751,-1.05837 q 0.66307,-0.58656 1.33889,-0.8926 0.67583,-0.30603 1.3134,-0.30603 z m 4.43219,0 q 1.59393,0 2.2825,0.54831 0.70133,0.53556 0.70133,1.60668 0.0128,0.86709 -0.43355,1.30064 -0.4463,0.4208 -1.54292,0.4208 h -3.51938 v -1.05837 h 2.99657 q 0.43355,0 0.54831,-0.17852 0.12752,-0.19127 0.12752,-0.52281 -0.0128,-0.4463 -0.26778,-0.61207 -0.24228,-0.17851 -0.82884,-0.17851 -0.52281,0 -0.81609,0.14026 -0.29328,0.14027 -0.40805,0.53556 -0.11476,0.39529 -0.11476,1.14763 0,0.79058 0.14027,1.22413 0.14026,0.4208 0.4718,0.58656 0.34429,0.16577 0.9436,0.16577 0.43355,0 1.07112,-0.0255 0.65032,-0.0382 1.30064,-0.11476 l 0.17852,1.16037 q -0.36979,0.17852 -0.84159,0.28054 -0.4718,0.10201 -0.96911,0.14026 -0.4973,0.051 -0.95635,0.051 -1.19863,0 -1.93821,-0.34429 -0.72683,-0.35704 -1.05837,-1.08387 -0.31879,-0.72683 -0.31879,-1.86171 0,-1.23688 0.33154,-1.96371 0.33154,-0.72683 1.04562,-1.04562 0.71407,-0.31878 1.87445,-0.31878 z m 8.20022,0 q 0.79058,0 1.33889,0.21677 0.54831,0.20403 0.82884,0.71408 0.29329,0.49731 0.29329,1.37715 v 4.15696 h -1.50467 l -0.26778,-1.3644 -0.12751,-0.19127 v -2.61404 q 0,-0.4463 -0.21678,-0.65032 -0.20402,-0.20402 -0.79058,-0.20402 -0.48456,0 -1.21139,0.0383 -0.72683,0.0255 -1.49191,0.0765 l -0.17852,-1.24964 q 0.45905,-0.0893 1.05837,-0.15301 0.59931,-0.0638 1.19863,-0.10201 0.59931,-0.051 1.07112,-0.051 z m 1.68318,2.58853 -0.0128,1.05837 -2.80531,0.0128 q -0.34429,0 -0.4973,0.16577 -0.14027,0.16577 -0.14027,0.4463 v 0.30603 q 0,0.31879 0.17852,0.49731 0.17852,0.16576 0.57381,0.16576 0.33154,0 0.71408,-0.14026 0.3953,-0.14027 0.77784,-0.39529 0.38254,-0.25503 0.67582,-0.59932 v 0.81609 q -0.11476,0.19127 -0.34429,0.48455 -0.21677,0.28053 -0.56106,0.56106 -0.34429,0.26778 -0.80334,0.45906 -0.45905,0.19127 -1.04561,0.19127 -0.57381,0 -1.03286,-0.20403 -0.45905,-0.20402 -0.72683,-0.59931 -0.26778,-0.3953 -0.26778,-0.98186 v -0.65032 q 0,-0.75233 0.51005,-1.17313 0.51006,-0.4208 1.40266,-0.4208 z m -0.61207,-5.86564 0.81609,1.27514 -2.84356,1.41541 -0.56106,-0.80334 z m 9.83239,3.44288 -2.07848,5.85289 q -0.0765,0.20402 -0.24227,0.33154 -0.15302,0.11476 -0.36979,0.11476 h -1.64493 q -0.21678,0 -0.38255,-0.11476 -0.15301,-0.12752 -0.22952,-0.33154 l -2.07848,-5.85289 h 2.00197 l 1.16038,3.94018 q 0.0765,0.28053 0.14026,0.57381 0.0638,0.29329 0.12752,0.56106 h 0.16576 q 0.0765,-0.28053 0.14027,-0.56106 0.0765,-0.29328 0.15302,-0.57381 l 1.13487,-3.94018 z m 4.40029,-0.16577 q 1.59393,0 2.2825,0.54831 0.70133,0.53556 0.70133,1.60668 0.0127,0.86709 -0.43355,1.30064 -0.44629,0.4208 -1.54292,0.4208 h -3.51938 v -1.05837 h 2.99658 q 0.43354,0 0.54831,-0.17852 0.12751,-0.19127 0.12751,-0.52281 -0.0128,-0.4463 -0.26778,-0.61207 -0.24227,-0.17851 -0.82884,-0.17851 -0.52281,0 -0.81609,0.14026 -0.29328,0.14027 -0.40804,0.53556 -0.11477,0.39529 -0.11477,1.14763 0,0.79058 0.14027,1.22413 0.14026,0.4208 0.4718,0.58656 0.34429,0.16577 0.9436,0.16577 0.43355,0 1.07112,-0.0255 0.65032,-0.0382 1.30065,-0.11476 l 0.17851,1.16037 q -0.36979,0.17852 -0.84159,0.28054 -0.4718,0.10201 -0.9691,0.14026 -0.49731,0.051 -0.95636,0.051 -1.19863,0 -1.93821,-0.34429 -0.72683,-0.35704 -1.05837,-1.08387 -0.31878,-0.72683 -0.31878,-1.86171 0,-1.23688 0.33153,-1.96371 0.33154,-0.72683 1.04562,-1.04562 0.71408,-0.31878 1.87445,-0.31878 z m 6.75931,-2.46102 v 6.91126 q 0,0.31878 0.19127,0.48455 0.19127,0.15302 0.56106,0.15302 h 0.51006 l 0.21677,1.27514 q -0.15301,0.0765 -0.43355,0.12751 -0.28053,0.0638 -0.57381,0.0893 -0.29328,0.0383 -0.4973,0.0383 -0.85435,0 -1.35165,-0.4463 -0.49731,-0.4463 -0.49731,-1.24964 v -7.38306 z"
         id="text36"
         aria-label="Ajuda rápida, fácil e rastreável" /><path
         style="font-weight:bold;font-size:38.309px;font-family:'Exo 2';-inkscape-font-specification:'Exo 2 Bold';letter-spacing:1.99527px;fill:#da8c1c;stroke-width:0.150824"
         d="m 159.17334,127.18811 v 26.43321 h -5.86128 v -26.43321 z m 9.8071,10.15189 v 4.40553 H 158.86687 V 137.34 Z m 5.43988,-10.15189 v 26.43321 h -5.86128 v -26.43321 z m 15.93974,7.01055 q 4.78863,0 6.85732,1.64729 2.10699,1.60898 2.10699,4.82693 0.0383,2.60501 -1.30251,3.90752 -1.34081,1.2642 -4.63538,1.2642 h -10.57329 v -3.17965 h 9.00262 q 1.3025,0 1.64728,-0.53633 0.38309,-0.57463 0.38309,-1.57067 -0.0383,-1.34081 -0.80449,-1.83883 -0.72787,-0.53632 -2.49008,-0.53632 -1.57067,0 -2.45178,0.4214 -0.8811,0.42139 -1.22588,1.60897 -0.34478,1.18758 -0.34478,3.44781 0,2.37516 0.42139,3.67767 0.4214,1.26419 1.41744,1.76221 1.03434,0.49802 2.83486,0.49802 1.30251,0 3.21796,-0.0766 1.95376,-0.11493 3.90752,-0.34478 l 0.53632,3.48612 q -1.11096,0.53632 -2.52839,0.8428 -1.41743,0.30647 -2.91149,0.42139 -1.49405,0.15324 -2.87317,0.15324 -3.60105,0 -5.82297,-1.03434 -2.18361,-1.07265 -3.17964,-3.25627 -0.95773,-2.18361 -0.95773,-5.59311 0,-3.71597 0.99603,-5.89959 0.99604,-2.18361 3.14134,-3.14133 2.14531,-0.95773 5.63142,-0.95773 z m 20.30695,-7.39364 v 20.76348 q 0,0.95773 0.57463,1.45574 0.57464,0.45971 1.6856,0.45971 h 1.53236 l 0.65125,3.8309 q -0.45971,0.22985 -1.30251,0.38309 -0.84279,0.19155 -1.7239,0.26816 -0.88111,0.11493 -1.49405,0.11493 -2.5667,0 -4.06076,-1.34081 -1.49405,-1.34082 -1.49405,-3.75429 v -22.18091 z m 21.34128,7.43195 q 3.56273,0 5.09509,2.60501 1.53236,2.60501 1.53236,7.47026 0,3.79259 -0.80448,5.93789 -0.76618,2.1453 -2.37516,3.02641 -1.57067,0.8428 -3.94583,0.8428 -2.03038,0 -3.86921,-0.57464 -1.83883,-0.57463 -3.25626,-1.91545 l 0.38309,-2.52839 q 1.26419,0.38309 2.29854,0.68956 1.07265,0.26817 2.41346,0.26817 1.22589,0 1.95376,-0.4214 0.72787,-0.4214 1.03435,-1.64729 0.34478,-1.2642 0.34478,-3.63935 0,-2.33685 -0.30648,-3.56274 -0.30647,-1.2642 -0.99603,-1.72391 -0.68956,-0.49801 -1.80052,-0.49801 -1.22589,0 -2.26023,0.49801 -1.03435,0.45971 -2.33685,1.34082 l -0.72787,-2.60501 q 0.76618,-1.03435 1.95376,-1.83884 1.22588,-0.80448 2.68163,-1.26419 1.45574,-0.45971 2.9881,-0.45971 z m -7.85335,0.45971 0.53633,3.44781 0.53632,0.57463 v 12.29719 l -0.19154,0.45971 q 0.11493,1.14927 0.15324,2.37516 0.0766,1.26419 0.0383,2.49008 v 4.55877 h -5.66973 v -26.20335 z m 26.66628,-7.70011 V 137.34 l -0.57463,7.89165 h -4.48216 L 245.1898,137.34 v -10.34343 z m -2.1453,20.80178 q 1.11096,0 1.53236,0.45971 0.45971,0.4214 0.45971,1.53236 v 1.83883 q 0,1.11097 -0.45971,1.57067 -0.4214,0.4214 -1.53236,0.4214 h -1.30251 q -1.14927,0 -1.57067,-0.4214 -0.4214,-0.4597 -0.4214,-1.57067 v -1.83883 q 0,-1.11096 0.4214,-1.53236 0.4214,-0.45971 1.57067,-0.45971 z"
         id="text35"
         aria-label="Help!" /><path
         style="font-size:47.7142px;font-family:'Good Times';-inkscape-font-specification:'Good Times';fill:#1e2d2b;stroke-width:16.7624"
         d="m 53.694928,126.84345 h 5.709173 l 12.155018,20.6267 12.118183,-20.6267 h 5.377673 L 73.621789,152.4795 c -0.270112,0.46655 -0.589335,0.83487 -0.957668,1.105 -0.368333,0.27011 -0.798057,0.40516 -1.289168,0.40516 -0.515669,0 -0.957668,-0.13507 -1.326004,-0.40516 -0.368333,-0.27013 -0.687554,-0.63845 -0.957668,-1.105 z m 22.297879,26.77787 2.693645,-4.67784 h 29.816558 c 1.47334,0 2.67656,-0.29466 3.60968,-0.884 0.93311,-0.58933 1.39966,-1.47333 1.39966,-2.65199 0,-1.10502 -0.34377,-1.95218 -1.03133,-2.54152 -0.68756,-0.58934 -1.69434,-0.884 -3.02034,-0.884 H 97.637165 v -3.94117 h 11.492015 c 1.326,0 2.30823,-0.24555 2.94667,-0.73666 0.63845,-0.49112 0.95767,-1.32602 0.95767,-2.50468 0,-1.25234 -0.41745,-2.11177 -1.25234,-2.57833 -0.83489,-0.49112 -2.02583,-0.73667 -3.57283,-0.73667 H 88.739891 l 2.672433,-4.64101 h 17.716856 c 1.30145,0 2.48012,0.14735 3.53601,0.442 1.05589,0.29466 1.96444,0.73666 2.72567,1.326 0.76122,0.56479 1.33828,1.28918 1.73117,2.17318 0.41744,0.85943 0.62616,1.85395 0.62616,2.98349 0,1.69434 -0.36833,2.99579 -1.105,3.90436 -0.71211,0.884 -1.57156,1.48561 -2.57834,1.80482 1.22778,0.39288 2.23456,1.10501 3.02034,2.13635 0.78578,1.03132 1.17867,2.33277 1.17867,3.90432 0,1.22779 -0.20873,2.34506 -0.62617,3.35184 -0.39289,0.98222 -0.96994,1.8294 -1.73117,2.54151 -0.73666,0.68756 -1.64522,1.22779 -2.72567,1.62068 -1.05589,0.39288 -2.23456,0.58932 -3.536,0.58932 z m 69.020333,0 -6.77734,-7.44033 h -10.01868 v -4.12534 h 11.16051 c 1.69434,0 2.97123,-0.45429 3.83067,-1.36285 0.85945,-0.93312 1.28917,-2.27139 1.28917,-4.01484 0,-1.74343 -0.45428,-3.03261 -1.36283,-3.8675 -0.884,-0.85945 -2.13634,-1.28916 -3.75701,-1.28916 h -14.58602 v 22.10002 h -4.641 v -26.77787 h 19.22702 c 1.52245,0 2.88528,0.23328 4.08851,0.69984 1.20322,0.442 2.22228,1.09272 3.05717,1.95216 0.83489,0.8349 1.47333,1.85395 1.91533,3.05717 0.442,1.20323 0.66301,2.55379 0.66301,4.05168 0,2.23456 -0.49112,4.11306 -1.47334,5.63551 -0.95767,1.49789 -2.30823,2.57834 -4.05167,3.24134 l 8.06651,8.14017 z"
         id="text22"
         aria-label="V3R"
         sodipodi:nodetypes="ccccccsssccccsssssccssscsccssccsccsscccscccccscscsccccsccsscccc" /></g></g></svg>
