<?xml version="1.0" encoding="UTF-8" standalone="no"?>
<!-- Created with Inkscape (http://www.inkscape.org/) -->

<svg
   width="1024"
   height="1024"
   viewBox="0 0 270.93333 270.93333"
   version="1.1"
   id="svg1"
   xml:space="preserve"
   inkscape:version="1.4.4 (dcaf3e7d9e, 2026-05-05)"
   sodipodi:docname="v3rhelp-logo-favicon.svg"
   inkscape:export-filename="v3rhelp-logo-favicon.png"
   inkscape:export-xdpi="96"
   inkscape:export-ydpi="96"
   xmlns:inkscape="http://www.inkscape.org/namespaces/inkscape"
   xmlns:sodipodi="http://sodipodi.sourceforge.net/DTD/sodipodi-0.dtd"
   xmlns:xlink="http://www.w3.org/1999/xlink"
   xmlns="http://www.w3.org/2000/svg"
   xmlns:svg="http://www.w3.org/2000/svg"><sodipodi:namedview
     id="namedview1"
     pagecolor="#ffffff"
     bordercolor="#000000"
     borderopacity="0.25"
     inkscape:showpageshadow="2"
     inkscape:pageopacity="0.0"
     inkscape:pagecheckerboard="0"
     inkscape:deskcolor="#d1d1d1"
     inkscape:document-units="px"
     showguides="false"
     inkscape:zoom="0.50583233"
     inkscape:cx="96.870044"
     inkscape:cy="671.17102"
     inkscape:window-width="2560"
     inkscape:window-height="1012"
     inkscape:window-x="0"
     inkscape:window-y="0"
     inkscape:window-maximized="1"
     inkscape:current-layer="layer1" /><defs
     id="defs1"><linearGradient
       id="linearGradient48"
       inkscape:collect="always"><stop
         style="stop-color:#e6a61c;stop-opacity:1;"
         offset="0"
         id="stop48" /><stop
         style="stop-color:#24393a;stop-opacity:1;"
         offset="1"
         id="stop49" /></linearGradient><clipPath
       clipPathUnits="userSpaceOnUse"
       id="clipPath5238-1-8-9-8-4"><rect
         transform="rotate(-90)"
         style="color:#000000;display:inline;overflow:visible;visibility:visible;fill:#ffffff;fill-opacity:1;fill-rule:evenodd;stroke:none;enable-background:accumulate"
         id="rect5240-2-3-9-5-1"
         width="315.35437"
         height="744.09448"
         x="-1016.9291"
         y="1461.6753" /></clipPath><clipPath
       clipPathUnits="userSpaceOnUse"
       id="clipPath5242-3-9-7-7"><rect
         transform="rotate(-90)"
         style="color:#000000;display:inline;overflow:visible;visibility:visible;fill:#ffffff;fill-opacity:1;fill-rule:evenodd;stroke:none;enable-background:accumulate"
         id="rect5244-3-2-6-6"
         width="315.35437"
         height="744.09448"
         x="-1016.9291"
         y="1461.6753" /></clipPath><linearGradient
       inkscape:collect="always"
       xlink:href="#linearGradient48"
       id="linearGradient49"
       x1="135.99698"
       y1="-172.61154"
       x2="314.88531"
       y2="8.892108"
       gradientUnits="userSpaceOnUse" /></defs><g
     inkscape:label="Camada 1"
     inkscape:groupmode="layer"
     id="layer1"><g
       id="g50"><g
         id="g49"
         transform="translate(-91.726038,213.78081)"><circle
           style="fill:url(#linearGradient49);fill-opacity:1;stroke:none;stroke-width:0.162063"
           id="path48"
           cx="227.1927"
           cy="-78.314148"
           r="135.46666" /><circle
           style="fill:#ffffff;fill-opacity:1;stroke:none;stroke-width:0.142594"
           id="circle48"
           cx="227.1927"
           cy="-78.314148"
           r="119.19269" /></g><g
         id="g47"
         transform="matrix(2.9570678,0,0,2.9570678,421.18488,-288.33605)"><path
           style="fill:#da8c1c;fill-opacity:1;fill-rule:nonzero;stroke:none;stroke-width:0.105416;stroke-opacity:1"
           d="m -103.3918,147.69956 c -0.46384,-0.0473 -0.98564,-0.14237 -1.15959,-0.21122 -0.17394,-0.0688 -1.94904,-0.59627 -3.94469,-1.17207 -1.99565,-0.57579 -3.64252,-1.06097 -3.65972,-1.07815 -0.0499,-0.0499 0.47562,-8.87271 0.59774,-10.03519 0.47327,-4.50488 1.26235,-6.71242 3.10249,-8.67961 1.58432,-1.69368 3.1145,-2.45692 5.74896,-2.86753 1.15015,-0.17926 8.232316,-0.25695 9.939029,-0.10902 2.713278,0.23516 4.446746,0.64784 6.07836,1.44705 0.823518,0.40338 1.153345,0.64457 1.9081,1.39529 1.966004,1.9555 2.873074,4.6664 3.309014,9.88941 0.243275,2.91478 0.519358,8.89056 0.415401,8.9912 -0.191515,0.18542 -3.701877,1.16819 -4.876662,1.36528 -4.266215,0.71571 -14.663642,1.34974 -17.458432,1.06456 z"
           id="path36"
           inkscape:connector-curvature="0" /><path
           id="path47"
           style="fill:#ffffff;stroke-width:0.439562"
           d="m -96.622142,145.62012 -25.827868,-23.12907 v 12.33578 l 25.823104,25.02311 z"
           sodipodi:nodetypes="ccccc" /><path
           id="path46"
           style="fill:#ffffff;fill-opacity:1;stroke-width:0.439562"
           d="m -96.624524,145.62012 25.827869,-23.12907 v 12.33578 l -25.823105,25.02311 z"
           sodipodi:nodetypes="ccccc" /><ellipse
           style="fill:#da8c1c;fill-opacity:1;fill-rule:nonzero;stroke:none;stroke-width:0.208713;stroke-opacity:1"
           id="ellipse36"
           cx="-97.018013"
           cy="114.38617"
           rx="8.485981"
           ry="7.9994626" /><path
           id="path37"
           style="fill:#e6a61c;stroke-width:0.439562"
           d="m -96.622142,147.20763 -25.827868,-23.12907 v 12.33578 l 25.823104,25.02311 z"
           sodipodi:nodetypes="ccccc" /><path
           id="path39"
           style="fill:#1e2d2b;fill-opacity:1;stroke-width:0.439562"
           d="M -96.622142,161.43745 -132.3733,126.80023 v 20.4074 l 35.751163,34.81166 z"
           sodipodi:nodetypes="ccccc" /><path
           id="path41"
           style="fill:#da8c1c;fill-opacity:1;stroke-width:0.439562"
           d="m -96.624524,147.20763 25.827869,-23.12907 v 12.33578 l -25.823105,25.02311 z"
           sodipodi:nodetypes="ccccc" /><path
           id="path42"
           style="fill:#24393a;stroke-width:0.439562"
           d="m -96.622133,161.43745 35.751154,-34.63722 v 20.4074 l -35.751158,34.81166 z"
           sodipodi:nodetypes="ccccc" /><ellipse
           style="fill:#1e2d2b;fill-opacity:1;fill-rule:nonzero;stroke:#ffffff;stroke-width:1.56931;stroke-miterlimit:4;stroke-dasharray:none;stroke-opacity:1"
           id="ellipse42"
           cx="-78.657242"
           cy="130.10269"
           rx="11.031964"
           ry="10.584723" /><g
           id="g45"
           transform="matrix(0.10435642,0,0,0.10435642,-82.942833,28.292901)"
           style="fill:#da8c1c;fill-opacity:1"><g
             id="g44"
             transform="rotate(41.392642,221.93295,477.51118)"
             style="fill:#da8c1c;fill-opacity:1"><path
               id="path43"
               style="fill:#da8c1c;fill-opacity:1"
               inkscape:connector-curvature="0"
               d="m 365.10854,929.81751 c -1.4336,0.11093 -3.2466,0.73862 -5.5938,2.0938 -15.022,8.6728 6.6103,12.666 -2.0625,27.688 -8.673,15.02 -22.938,-1.72 -22.938,15.62 0,17.346 14.265,0.60321 22.938,15.625 8.6728,15.02199 -12.959,19.01499 2.0625,27.68799 15.022,8.6728 7.6543,-12.062 25,-12.062 17.3457,0 9.9782,20.735 25,12.062 15.022,-8.6728 -6.6103,-12.666 2.0625,-27.68799 8.6728,-15.022 22.938,1.7207 22.938,-15.625 0,-17.3457 -14.265,-0.60321 -22.938,-15.625 -8.6728,-15.022 12.959,-19.015 -2.0625,-27.688 -15.022,-8.6728 -7.6543,12.062 -25,12.062 -14.635,0 -11.665,-14.755 -19.406,-14.156 z m 19.406,25.4 c 11.046,0 20,8.9543 20,20 0,11.0457 -8.9543,20 -20,20 -11.0457,0 -20,-8.9543 -20,-20 0,-11.0457 8.9543,-20 20,-20 z" /><path
               id="path44"
               d="m 430.35454,953.00751 c -0.88956,0.60965 -1.8317,1.6972 -2.8481,3.4576 -6.5046,11.266 9.0432,5.7478 9.0432,18.757 -1e-5,13.009 -15.544,7.484 -9.039,18.75 6.5046,11.26599 9.4914,-4.9574 20.758,1.5472 11.266,6.50459 -1.2868,17.20999 11.722,17.20999 13.0088,0 0.4482,-10.705 11.715,-17.20999 11.266,-6.5046 14.257,9.72619 20.761,-1.5402 6.5046,-11.266 -9.0432,-5.7478 -9.0432,-18.757 10e-6,-13.009 15.544,-7.484 9.039,-18.75 -6.5046,-11.266 -9.4914,4.9574 -20.758,-1.5472 -11.266,-6.5046 1.2868,-17.21 -11.722,-17.21 -13.0088,0 -0.4482,10.705 -11.715,17.21 -9.506,5.4883 -13.11,-5.2096 -17.913,-1.9174 z m 22.132,9.2245 c 7.1744,-4.1421 16.348,-1.684 20.49,5.4904 4.1421,7.1744 1.684,16.348 -5.4904,20.49 -7.1744,4.1421 -16.348,1.684 -20.49,-5.4904 -4.1421,-7.1744 -1.684,-16.348 5.4904,-20.49 z"
               style="fill:#da8c1c;fill-opacity:1"
               inkscape:connector-curvature="0" /></g></g></g></g></g></svg>
